<svg width="60" height="60" viewBox="0 0 60 60" fill="none" xmlns="http://www.w3.org/2000/svg">
<g clip-path="url(#clip0_1213_48)">
<path d="M33.2992 7.57368H33.3106C33.3518 7.58004 33.3934 7.58307 33.4352 7.58274C33.6496 7.58239 33.8559 7.50088 34.0128 7.35457C34.1697 7.20827 34.2655 7.00799 34.281 6.79394C34.2964 6.57988 34.2305 6.36789 34.0963 6.20049C33.9621 6.0331 33.7696 5.92269 33.5575 5.89143H33.5461C33.4352 5.874 33.322 5.87875 33.2129 5.90539C33.1039 5.93204 33.0012 5.98005 32.9108 6.04667C32.8204 6.11328 32.7441 6.19716 32.6863 6.29347C32.6284 6.38978 32.5903 6.4966 32.574 6.60777C32.5576 6.71893 32.5635 6.83223 32.5912 6.94111C32.6189 7.04999 32.6679 7.1523 32.7353 7.24212C32.8028 7.33193 32.8873 7.40748 32.9841 7.46439C33.0809 7.5213 33.188 7.55845 33.2992 7.57368ZM30 7.33222H30.0113C30.2366 7.33222 30.4527 7.24265 30.612 7.08321C30.7713 6.92377 30.8608 6.70752 30.8608 6.48203C30.8608 6.25655 30.7713 6.0403 30.612 5.88086C30.4527 5.72141 30.2366 5.63184 30.0113 5.63184H30C29.7747 5.63184 29.5587 5.72141 29.3994 5.88086C29.2401 6.0403 29.1506 6.25655 29.1506 6.48203C29.1506 6.70752 29.2401 6.92377 29.3994 7.08321C29.5587 7.24265 29.7747 7.33222 30 7.33222ZM26.575 7.57821C26.6168 7.57861 26.6584 7.57558 26.6996 7.56914H26.711C26.9321 7.53439 27.1306 7.41369 27.2633 7.23328C27.396 7.05287 27.4521 6.82732 27.4196 6.60567C27.3871 6.38403 27.2685 6.18419 27.0895 6.04959C26.9106 5.915 26.6858 5.85653 26.4641 5.8869H26.4527C26.2406 5.91816 26.0481 6.02856 25.9139 6.19596C25.7797 6.36335 25.7137 6.57535 25.7292 6.7894C25.7447 7.00346 25.8405 7.20373 25.9974 7.35004C26.1543 7.49634 26.3606 7.57785 26.575 7.57821ZM53.337 27.7821C53.362 27.7821 53.3869 27.7821 53.4118 27.7821C53.6359 27.7625 53.843 27.6547 53.9876 27.4823C54.1322 27.3099 54.2026 27.0871 54.1831 26.8628V26.8265C54.162 26.6647 54.0947 26.5124 53.9894 26.3879C53.8841 26.2634 53.7451 26.1718 53.5891 26.1243C53.4332 26.0767 53.2669 26.0752 53.11 26.1198C52.9532 26.1644 52.8126 26.2532 52.7049 26.3758C52.5972 26.4983 52.5271 26.6493 52.503 26.8107C52.4788 26.972 52.5016 27.1369 52.5687 27.2857C52.6357 27.4344 52.7442 27.5607 52.881 27.6493C53.0179 27.738 53.1774 27.7852 53.3404 27.7855L53.337 27.7821ZM47.323 24.3632C49.6318 24.3644 51.8892 23.68 53.8094 22.3969C55.7296 21.1137 57.2264 19.2894 58.1105 17.1546C58.9946 15.0198 59.2262 12.6706 58.776 10.404C58.3258 8.1375 57.2141 6.05552 55.5815 4.42147C53.9489 2.78743 51.8688 1.67475 49.6042 1.22419C47.3397 0.773631 44.9925 1.00544 42.8596 1.8903C40.7267 2.77516 38.9039 4.2733 37.6219 6.1952C36.3399 8.1171 35.6562 10.3764 35.6573 12.6873C35.6588 15.7835 36.8883 18.7524 39.0758 20.9418C41.2632 23.1311 44.2295 24.3617 47.323 24.3632ZM47.323 22.6629C45.3079 22.6653 43.3399 22.0528 41.6815 20.9069C42.0355 19.6831 42.777 18.6075 43.7946 17.8421C44.8122 17.0766 46.0506 16.6627 47.3235 16.6627C48.5965 16.6627 49.8349 17.0766 50.8525 17.8421C51.87 18.6075 52.6116 19.6831 52.9655 20.9069C51.3065 22.0521 49.3383 22.6646 47.323 22.6629ZM43.9433 11.5809C43.9438 10.9133 44.1419 10.2609 44.5127 9.70598C44.8834 9.15106 45.4102 8.71858 46.0264 8.46317C46.6426 8.20776 47.3207 8.14087 47.9749 8.27097C48.629 8.40107 49.23 8.72231 49.7019 9.19411C50.1737 9.66591 50.4953 10.2671 50.6259 10.9217C50.7566 11.5764 50.6904 12.2551 50.4359 12.8721C50.1813 13.4891 49.7497 14.0168 49.1957 14.3884C48.6416 14.7601 47.99 14.959 47.323 14.9601C46.8792 14.9609 46.4397 14.874 46.0296 14.7045C45.6194 14.535 45.2467 14.2861 44.9327 13.9722C44.6188 13.6584 44.3698 13.2856 44.2001 12.8752C44.0303 12.4649 43.943 12.025 43.9433 11.5809ZM47.323 2.70038C49.2957 2.70062 51.224 3.28678 52.8636 4.38463C54.5033 5.48247 55.7805 7.04263 56.5336 8.86752C57.2868 10.6924 57.4819 12.6999 57.0943 14.6359C56.7067 16.5719 55.7539 18.3492 54.3564 19.7427C53.6243 17.9008 52.2016 16.4183 50.3923 15.6119C51.2368 14.9675 51.8581 14.0741 52.1688 13.0577C52.4794 12.0413 52.4637 10.9529 52.1239 9.94588C51.7841 8.93884 51.1372 8.06383 50.2745 7.44403C49.4117 6.82424 48.3765 6.49087 47.3145 6.49087C46.2525 6.49087 45.2173 6.82424 44.3545 7.44403C43.4917 8.06383 42.8449 8.93884 42.5051 9.94588C42.1653 10.9529 42.1496 12.0413 42.4602 13.0577C42.7708 14.0741 43.3922 14.9675 44.2367 15.6119C42.4289 16.4188 41.0068 17.8995 40.2726 19.7393C38.8753 18.3446 37.9231 16.566 37.5367 14.629C37.1503 12.6921 37.3471 10.6839 38.1022 8.85901C38.8573 7.03412 40.1367 5.47467 41.7782 4.37828C43.4198 3.2819 45.3495 2.69793 47.323 2.70038ZM54.3099 30.4574V30.4223C54.3106 30.4181 54.3106 30.4139 54.3099 30.4098V30.3746C54.3163 30.1499 54.2333 29.9319 54.0791 29.7684C53.9249 29.6049 53.7122 29.5094 53.4877 29.5029H53.4616C53.2419 29.5034 53.031 29.589 52.873 29.7418C52.715 29.8946 52.6224 30.1028 52.6144 30.3225C52.6144 30.3327 52.6144 30.3418 52.6144 30.352V30.3701C52.6042 30.5936 52.6825 30.8121 52.8321 30.9783C52.9818 31.1444 53.1909 31.2448 53.4141 31.2577H53.4628C53.6792 31.2578 53.8875 31.1749 54.0449 31.026C54.2022 30.8772 54.2966 30.6737 54.3088 30.4574H54.3099ZM52.2509 33.6553C52.2289 33.7646 52.2287 33.8772 52.2503 33.9866C52.2718 34.096 52.3147 34.2001 52.3764 34.293C52.4381 34.3858 52.5175 34.4656 52.6101 34.5277C52.7026 34.5898 52.8065 34.6331 52.9157 34.6551C53.025 34.677 53.1375 34.6772 53.2468 34.6557C53.3561 34.6341 53.4601 34.5912 53.5529 34.5294C53.6456 34.4676 53.7253 34.3882 53.7874 34.2956C53.8495 34.2029 53.8927 34.099 53.9147 33.9897L53.9215 33.9545C53.941 33.8447 53.9388 33.7322 53.9149 33.6232C53.891 33.5143 53.8459 33.4112 53.7821 33.3197C53.7184 33.2282 53.6373 33.1502 53.5434 33.0901C53.4496 33.03 53.3448 32.989 53.2351 32.9694C53.1254 32.9499 53.0129 32.9521 52.9041 32.976C52.7953 33 52.6922 33.0451 52.6008 33.1089C52.5095 33.1727 52.4315 33.2539 52.3715 33.3478C52.3114 33.4417 52.2704 33.5466 52.2509 33.6564V33.6553ZM33.4352 53.2425C33.3935 53.2427 33.3518 53.2458 33.3106 53.2516H33.2992C33.0781 53.2863 32.8796 53.407 32.7469 53.5874C32.6142 53.7678 32.558 53.9934 32.5906 54.215C32.6231 54.4367 32.7417 54.6365 32.9207 54.7711C33.0996 54.9057 33.3244 54.9642 33.5461 54.9338H33.5575C33.7696 54.9026 33.9621 54.7921 34.0963 54.6248C34.2305 54.4574 34.2964 54.2454 34.281 54.0313C34.2655 53.8173 34.1697 53.617 34.0128 53.4707C33.8559 53.3244 33.6496 53.2429 33.4352 53.2425ZM12.6714 35.6368C10.363 35.6368 8.10644 36.3219 6.1871 37.6055C4.26776 38.8891 2.77181 40.7135 1.88843 42.848C1.00506 44.9826 0.773925 47.3313 1.22427 49.5973C1.67461 51.8634 2.7862 53.9448 4.41846 55.5785C6.05073 57.2122 8.13037 58.3248 10.3944 58.7755C12.6584 59.2263 15.0051 58.9949 17.1378 58.1108C19.2705 57.2266 21.0933 55.7294 22.3757 53.8083C23.6582 51.8873 24.3427 49.6288 24.3427 47.3184C24.3394 44.2212 23.1087 41.2519 20.9206 39.0619C18.7325 36.8719 15.7658 35.6401 12.6714 35.6368ZM12.6714 57.2996C10.6563 57.3015 8.68849 56.6891 7.02992 55.5437C7.36385 54.3963 8.03832 53.3776 8.96391 52.6227C9.8895 51.8678 11.0225 51.4123 12.2127 51.3165C12.3656 51.3313 12.5207 51.3381 12.6748 51.3392C12.8288 51.3403 12.9828 51.3301 13.1346 51.3165C14.3255 51.4099 15.4596 51.8646 16.3856 52.6199C17.3117 53.3752 17.9855 54.3951 18.3173 55.5437C16.6582 56.6889 14.6901 57.3013 12.6748 57.2996H12.6714ZM9.27358 46.2415C9.27264 45.5868 9.46048 44.9459 9.81457 44.3955C10.1687 43.8451 10.6739 43.4086 11.2698 43.1386C11.8656 42.8686 12.5266 42.7764 13.1735 42.8731C13.8203 42.9699 14.4256 43.2514 14.9165 43.684C15.4074 44.1165 15.7632 44.6817 15.9411 45.3117C16.1189 45.9416 16.1114 46.6096 15.9193 47.2353C15.7272 47.8611 15.3587 48.4181 14.8581 48.8394C14.3576 49.2607 13.7461 49.5284 13.0972 49.6105C12.9545 49.6014 12.8107 49.598 12.668 49.5969C12.5253 49.5958 12.3825 49.6026 12.2421 49.6105C11.4233 49.5053 10.6708 49.1053 10.1251 48.4853C9.57945 47.8653 9.27797 47.0677 9.27698 46.2415H9.27358ZM19.707 54.3818C18.9814 52.5541 17.5758 51.0794 15.786 50.268C16.6279 49.6174 17.2453 48.7195 17.5518 47.7001C17.8583 46.6807 17.8385 45.5909 17.4951 44.5833C17.1517 43.5758 16.502 42.701 15.637 42.0815C14.772 41.4621 13.735 41.129 12.6714 41.129C11.6077 41.129 10.5708 41.4621 9.70574 42.0815C8.84072 42.701 8.19099 43.5758 7.84761 44.5833C7.50423 45.5909 7.48439 46.6807 7.79088 47.7001C8.09737 48.7195 8.71483 49.6174 9.55673 50.268C7.76643 51.0799 6.35991 52.5543 5.6323 54.3818C4.23515 52.9883 3.2822 51.2115 2.89398 49.276C2.50575 47.3405 2.69969 45.3333 3.45125 43.5081C4.20282 41.6829 5.47826 40.1218 7.11629 39.0222C8.75432 37.9225 10.6814 37.3337 12.6537 37.3302C14.6261 37.3267 16.5552 37.9087 18.1971 39.0026C19.839 40.0964 21.12 41.653 21.878 43.4755C22.636 45.298 22.837 47.3046 22.4556 49.2414C22.0742 51.1783 21.1276 52.9585 19.7353 54.3568L19.7104 54.3818H19.707ZM30.0079 53.4942H29.9966C29.7713 53.4942 29.5553 53.5837 29.396 53.7432C29.2367 53.9026 29.1472 54.1189 29.1472 54.3443C29.1472 54.5698 29.2367 54.7861 29.396 54.9455C29.5553 55.105 29.7713 55.1945 29.9966 55.1945H30.0079C30.2332 55.1945 30.4493 55.105 30.6086 54.9455C30.7679 54.7861 30.8574 54.5698 30.8574 54.3443C30.8574 54.1189 30.7679 53.9026 30.6086 53.7432C30.4493 53.5837 30.2332 53.4942 30.0079 53.4942ZM31.6932 53.6495V53.6642L31.6842 53.4976L31.6932 53.6495ZM26.7098 53.2595H26.6985C26.6572 53.2537 26.6156 53.2506 26.5739 53.2504C26.3595 53.2508 26.1531 53.3323 25.9962 53.4786C25.8394 53.6249 25.7436 53.8252 25.7281 54.0392C25.7126 54.2533 25.7786 54.4653 25.9128 54.6327C26.047 54.8001 26.2395 54.9105 26.4516 54.9418H26.4629C26.6847 54.9721 26.9095 54.9137 27.0884 54.7791C27.2673 54.6445 27.386 54.4446 27.4185 54.223C27.451 54.0013 27.3948 53.7758 27.2621 53.5954C27.1294 53.415 26.9309 53.2943 26.7098 53.2595ZM28.2366 53.6098L28.2479 53.4964L28.2377 53.6098H28.2366ZM35.0955 53.094V53.0997L35.0763 53.0056L35.0955 53.094ZM6.52705 31.192H6.5497C6.77452 31.1854 6.98755 31.0898 7.14195 30.9262C7.29635 30.7625 7.3795 30.5441 7.3731 30.3191V30.284C7.36184 30.1189 7.30263 29.9607 7.20274 29.8288C7.10285 29.6969 6.96664 29.5972 6.81086 29.5417C6.65507 29.4863 6.4865 29.4777 6.32587 29.5169C6.16524 29.5561 6.01956 29.6414 5.90672 29.7623C5.79388 29.8833 5.71882 30.0346 5.69075 30.1976C5.66269 30.3607 5.68285 30.5285 5.74875 30.6802C5.81465 30.832 5.92343 30.9612 6.0617 31.0519C6.19997 31.1426 6.36172 31.1909 6.52705 31.1908V31.192ZM6.38774 30.3463H6.52705H6.37528H6.38774ZM6.55536 27.7583C6.58885 27.7619 6.62249 27.7638 6.65616 27.764C6.86371 27.7635 7.06386 27.6868 7.21873 27.5485C7.3736 27.4102 7.47244 27.2199 7.49655 27.0136V26.9773C7.50871 26.8114 7.47193 26.6456 7.39077 26.5005C7.30962 26.3554 7.18766 26.2373 7.04004 26.1609C6.89242 26.0845 6.72565 26.0532 6.56042 26.0709C6.39518 26.0886 6.23877 26.1544 6.1106 26.2603C5.98243 26.3661 5.88814 26.5073 5.83945 26.6663C5.79075 26.8253 5.78978 26.9952 5.83667 27.1547C5.88356 27.3143 5.97624 27.4566 6.1032 27.5639C6.23016 27.6712 6.38581 27.7388 6.55083 27.7583H6.55536ZM6.89514 34.6018C7.12013 34.6018 7.3359 34.5123 7.49499 34.3531C7.65408 34.1939 7.74345 33.9779 7.74345 33.7527C7.74385 33.7033 7.73968 33.654 7.73099 33.6054L7.7242 33.5702C7.68982 33.4139 7.61198 33.2705 7.49967 33.1565C7.38736 33.0425 7.24514 32.9627 7.08943 32.9261C6.93372 32.8896 6.77086 32.8978 6.61963 32.9499C6.4684 33.002 6.33496 33.0958 6.23472 33.2206C6.13447 33.3453 6.0715 33.4959 6.05306 33.6549C6.03463 33.8139 6.06148 33.9749 6.13052 34.1193C6.19956 34.2637 6.30798 34.3856 6.44327 34.4709C6.57856 34.5563 6.7352 34.6017 6.89514 34.6018ZM6.76036 33.7765L6.89627 33.7527L6.7479 33.7788L6.76036 33.7765Z" fill="#272A33" stroke="#263238" stroke-width="0.4"/>
<path d="M12.5 1C10.2255 1 8.00211 1.67446 6.11095 2.9381C4.21978 4.20173 2.7458 5.99779 1.87539 8.09914C1.00498 10.2005 0.777244 12.5128 1.22097 14.7435C1.6647 16.9743 2.75997 19.0234 4.36828 20.6317C5.97658 22.24 8.02568 23.3353 10.2565 23.779C12.4872 24.2228 14.7995 23.995 16.9009 23.1246C19.0022 22.2542 20.7983 20.7802 22.0619 18.8891C23.3255 16.9979 24 14.7745 24 12.5C24 9.45001 22.7884 6.52494 20.6317 4.36827C18.4751 2.2116 15.55 1 12.5 1ZM12.5 22.326C10.5145 22.3284 8.57539 21.7254 6.94139 20.5974C7.29013 19.3927 8.02081 18.3338 9.02343 17.5802C10.026 16.8267 11.2463 16.4192 12.5006 16.4192C13.7548 16.4192 14.9751 16.8267 15.9777 17.5802C16.9803 18.3338 17.711 19.3927 18.0597 20.5974C16.425 21.7248 14.4858 22.3278 12.5 22.326ZM9.17555 11.4164C9.17555 10.7589 9.37052 10.1161 9.73582 9.56943C10.1011 9.02273 10.6203 8.59662 11.2278 8.345C11.8353 8.09338 12.5037 8.02755 13.1486 8.15582C13.7935 8.2841 14.3858 8.60072 14.8507 9.06565C15.3157 9.53059 15.6323 10.1229 15.7606 10.7678C15.8889 11.4127 15.823 12.0811 15.5714 12.6886C15.3198 13.2961 14.8937 13.8153 14.347 14.1806C13.8003 14.5459 13.1575 14.7409 12.5 14.7409C11.6183 14.7409 10.7727 14.3906 10.1493 13.7671C9.5258 13.1437 9.17555 12.2981 9.17555 11.4164ZM19.4424 19.4513C18.7205 17.6383 17.319 16.1791 15.5365 15.3848C16.3687 14.7503 16.9808 13.8709 17.2869 12.8702C17.593 11.8696 17.5775 10.7982 17.2427 9.80679C16.9079 8.8154 16.2705 7.954 15.4204 7.34384C14.5704 6.73368 13.5503 6.4055 12.5039 6.4055C11.4575 6.4055 10.4375 6.73368 9.58737 7.34384C8.73728 7.954 8.09996 8.8154 7.76513 9.80679C7.43031 10.7982 7.41484 11.8696 7.7209 12.8702C8.02697 13.8709 8.63916 14.7503 9.47128 15.3848C7.68899 16.1797 6.28724 17.6387 5.56429 19.4513C4.18865 18.0788 3.25114 16.329 2.87041 14.4234C2.48969 12.5178 2.68287 10.5421 3.4255 8.74636C4.16814 6.95061 5.42684 5.41555 7.04229 4.33548C8.65774 3.25541 10.5573 2.67889 12.5006 2.67889C14.4438 2.67889 16.3434 3.25541 17.9588 4.33548C19.5743 5.41555 20.833 6.95061 21.5756 8.74636C22.3183 10.5421 22.5114 12.5178 22.1307 14.4234C21.75 16.329 20.8125 18.0788 19.4368 19.4513H19.4424Z" fill="#FB5D1E" stroke="#FB5D1E" stroke-width="0.4"/>
<path d="M47.5056 36C45.2311 35.9989 43.0074 36.6723 41.1156 37.935C39.2238 39.1977 37.749 40.9931 36.8775 43.094C36.0061 45.1949 35.7772 47.5071 36.2199 49.7381C36.6625 51.9691 37.7568 54.0187 39.3643 55.6278C40.9719 57.2369 43.0204 58.3331 45.251 58.7779C47.4816 59.2227 49.7939 58.9961 51.8957 58.1267C53.9975 57.2574 55.7942 55.7842 57.0588 53.8937C58.3234 52.0031 58.9989 49.7801 59 47.5056C59.0007 45.9954 58.704 44.4998 58.1267 43.1043C57.5495 41.7088 56.703 40.4406 55.6357 39.3722C54.5683 38.3038 53.301 37.4561 51.906 36.8775C50.5111 36.2989 49.0158 36.0007 47.5056 36ZM47.5056 57.3261C45.52 57.3285 43.581 56.7254 41.947 55.5974C42.2957 54.3927 43.0264 53.3338 44.029 52.5802C45.0316 51.8267 46.2519 51.4192 47.5061 51.4192C48.7604 51.4192 49.9806 51.8267 50.9833 52.5802C51.9859 53.3338 52.7166 54.3927 53.0653 55.5974C51.4306 56.7248 49.4914 57.3278 47.5056 57.3261ZM44.1811 46.4186C44.1811 45.7611 44.3761 45.1184 44.7414 44.5717C45.1067 44.025 45.6259 43.5989 46.2334 43.3472C46.8408 43.0956 47.5093 43.0298 48.1541 43.1581C48.799 43.2863 49.3914 43.603 49.8563 44.0679C50.3213 44.5328 50.6379 45.1252 50.7662 45.7701C50.8944 46.4149 50.8286 47.0834 50.577 47.6908C50.3254 48.2983 49.8993 48.8175 49.3525 49.1828C48.8058 49.5481 48.1631 49.7431 47.5056 49.7431C47.0685 49.7438 46.6356 49.6584 46.2317 49.4916C45.8277 49.3249 45.4605 49.0801 45.1512 48.7714C44.8419 48.4626 44.5966 48.0958 44.4291 47.6921C44.2617 47.2884 44.1755 46.8557 44.1755 46.4186H44.1811ZM54.4424 54.4536C53.7205 52.6406 52.319 51.1813 50.5365 50.387C51.3687 49.7526 51.9808 48.8731 52.2869 47.8725C52.593 46.8718 52.5775 45.8004 52.2427 44.809C51.9079 43.8176 51.2705 42.9562 50.4204 42.3461C49.5703 41.7359 48.5503 41.4077 47.5039 41.4077C46.4575 41.4077 45.4375 41.7359 44.5874 42.3461C43.7373 42.9562 43.1 43.8176 42.7651 44.809C42.4303 45.8004 42.4148 46.8718 42.7209 47.8725C43.027 48.8731 43.6392 49.7526 44.4713 50.387C42.69 51.1813 41.2888 52.639 40.5654 54.4502C39.1898 53.0777 38.2523 51.3279 37.8715 49.4223C37.4908 47.5167 37.684 45.541 38.4266 43.7452C39.1693 41.9495 40.428 40.4144 42.0434 39.3344C43.6589 38.2543 45.5584 37.6778 47.5017 37.6778C49.4449 37.6778 51.3445 38.2543 52.9599 39.3344C54.5754 40.4144 55.8341 41.9495 56.5767 43.7452C57.3194 45.541 57.5125 47.5167 57.1318 49.4223C56.7511 51.3279 55.8136 53.0777 54.4379 54.4502L54.4424 54.4536Z" fill="#FB5D1E" stroke="#FB5D1E" stroke-width="0.4"/>
</g>
<defs>
<clipPath id="clip0_1213_48">
<rect width="60" height="60" fill="white"/>
</clipPath>
</defs>
</svg>
