<svg width="60" height="60" viewBox="0 0 60 60" fill="none" xmlns="http://www.w3.org/2000/svg">
<g clip-path="url(#clip0_1204_526)">
<path d="M19.0909 0C8.53773 0 0 8.53773 0 19.0909V40.9091C0 51.4623 8.53773 60 19.0909 60H40.9091C51.4623 60 60 51.4623 60 40.9091V19.0909C60 8.53773 51.4623 0 40.9091 0H19.0909ZM19.0909 2.72727H39.5455V57.2727H19.0909C10.0023 57.2727 2.72727 49.9977 2.72727 40.9091V19.0909C2.72727 10.0023 10.0023 2.72727 19.0909 2.72727ZM42.2727 2.79545C50.7136 3.48409 57.2727 10.4632 57.2727 19.0909V20.4545H42.2727V2.79545ZM42.2727 23.1818H57.2727V36.8182H42.2727V23.1818ZM42.2727 39.5455H57.2727V40.9091C57.2886 45.0162 55.7516 48.9776 52.9699 51.9994C50.1881 55.0211 46.3672 56.8799 42.2727 57.2032V39.5441V39.5455Z" fill="#263238"/>
<path d="M22 18C17.4598 18 13.75 21.5973 13.75 26C13.7505 27.0485 13.9643 28.0865 14.3791 29.0548C14.7939 30.023 15.4015 30.9024 16.1672 31.6427C13.0707 33.5333 11 36.8693 11 40.6667C11 41.0203 11.1449 41.3594 11.4027 41.6095C11.6606 41.8595 12.0103 42 12.375 42C12.7397 42 13.0894 41.8595 13.3473 41.6095C13.6051 41.3594 13.75 41.0203 13.75 40.6667C13.7484 39.1067 14.2192 37.5807 15.1041 36.278C15.989 34.9752 17.2489 33.9532 18.7275 33.3387C19.76 33.7762 20.8746 34.0021 22.0014 34.0021C23.1281 34.0021 24.2428 33.7762 25.2752 33.3387C28.2013 34.5653 30.25 37.3653 30.25 40.6667C30.25 41.0203 30.3949 41.3594 30.6527 41.6095C30.9106 41.8595 31.2603 42 31.625 42C31.9897 42 32.3394 41.8595 32.5973 41.6095C32.8551 41.3594 33 41.0203 33 40.6667C33 36.8693 30.9293 33.5333 27.8328 31.6427C28.5985 30.9024 29.2061 30.023 29.6209 29.0548C30.0357 28.0865 30.2495 27.0485 30.25 26C30.25 21.5973 26.5402 18 22 18ZM22 20.6667C25.0539 20.6667 27.5 23.0387 27.5 26C27.5 28.9613 25.0539 31.3333 22 31.3333C18.9461 31.3333 16.5 28.9613 16.5 26C16.5 23.0387 18.9461 20.6667 22 20.6667Z" fill="#FB5D1E"/>
</g>
<defs>
<clipPath id="clip0_1204_526">
<rect width="60" height="60" fill="white"/>
</clipPath>
</defs>
</svg>
