<svg width="60" height="60" viewBox="0 0 60 60" fill="none" xmlns="http://www.w3.org/2000/svg">
<g clip-path="url(#clip0_1213_62)">
<path d="M26.6429 14H15.7858C15.4258 14 15.0806 13.8423 14.8261 13.5616C14.5716 13.2808 14.4286 12.9001 14.4286 12.5031C14.4286 12.106 14.5716 11.7253 14.8261 11.4446C15.0806 11.1638 15.4258 11.0061 15.7858 11.0061H26.6429C27.0028 11.0061 27.348 11.1638 27.6025 11.4446C27.857 11.7253 28 12.106 28 12.5031C28 12.9001 27.857 13.2808 27.6025 13.5616C27.348 13.8423 27.0028 14 26.6429 14ZM10.3572 14C9.99794 13.9942 9.65387 13.8392 9.39365 13.5659C9.14134 13.2821 9 12.9005 9 12.5031C9 12.1056 9.14134 11.724 9.39365 11.4402C9.6492 11.1584 9.9958 11 10.3572 11C10.7186 11 11.0652 11.1584 11.3208 11.4402C11.5763 11.7221 11.7199 12.1044 11.7199 12.5031C11.7199 12.9017 11.5763 13.284 11.3208 13.5659L11.1172 13.7455C11.0416 13.8022 10.9594 13.8475 10.8729 13.8802C10.7959 13.9232 10.7136 13.9534 10.6286 13.9701C10.5389 13.9873 10.4482 13.9973 10.3572 14Z" fill="#FB5D1E" stroke="#FB5D1E"/>
<path d="M58.6429 28H29.7858C29.4258 28 29.0806 27.8423 28.8261 27.5616C28.5716 27.2808 28.4286 26.9001 28.4286 26.5031C28.4286 26.106 28.5716 25.7253 28.8261 25.4446C29.0806 25.1638 29.4258 25.0061 29.7858 25.0061H58.6429C59.0028 25.0061 59.348 25.1638 59.6025 25.4446C59.857 25.7253 60 26.106 60 26.5031C60 26.9001 59.857 27.2808 59.6025 27.5616C59.348 27.8423 59.0028 28 58.6429 28ZM24.3572 28C23.9979 27.9942 23.6539 27.8392 23.3936 27.5659C23.1413 27.2821 23 26.9005 23 26.5031C23 26.1056 23.1413 25.724 23.3936 25.4402C23.6492 25.1584 23.9958 25 24.3572 25C24.7186 25 25.0652 25.1584 25.3208 25.4402C25.5763 25.7221 25.7199 26.1044 25.7199 26.5031C25.7199 26.9017 25.5763 27.284 25.3208 27.5659L25.1172 27.7455C25.0416 27.8022 24.9594 27.8475 24.8729 27.8802C24.7959 27.9232 24.7136 27.9534 24.6286 27.9701C24.5389 27.9873 24.4482 27.9973 24.3572 28Z" fill="#FB5D1E" stroke="#FB5D1E"/>
<path d="M53.3735 57H6.3253C5.97381 57 5.63671 56.8583 5.38817 56.6061C5.13963 56.3539 5 56.0118 5 55.6552C5 55.2985 5.13963 54.9564 5.38817 54.7042C5.63671 54.452 5.97381 54.3103 6.3253 54.3103C7.20371 54.3093 8.04583 53.9547 8.66696 53.3244C9.28809 52.6942 9.6375 51.8396 9.63855 50.9483V24.7241C9.64066 22.9414 10.3395 21.2324 11.5817 19.9718C12.824 18.7113 14.5082 18.0021 16.2651 18H53.3735C55.1303 18.0021 56.8146 18.7113 58.0568 19.9718C59.2991 21.2324 59.9979 22.9414 60 24.7241V50.2759C59.9979 52.0586 59.2991 53.7676 58.0568 55.0282C56.8146 56.2887 55.1303 56.9979 53.3735 57ZM11.2819 54.3103H53.3735C54.4276 54.3093 55.4383 53.8839 56.1837 53.1275C56.9291 52.3711 57.3483 51.3455 57.3494 50.2759V24.7241C57.3483 23.6545 56.9291 22.6289 56.1837 21.8725C55.4383 21.1161 54.4276 20.6907 53.3735 20.6897H16.2651C15.2109 20.6907 14.2002 21.1161 13.4548 21.8725C12.7094 22.6289 12.2902 23.6545 12.2892 24.7241V50.9483C12.2904 52.1457 11.9397 53.3163 11.2819 54.3103Z" fill="#263238"/>
<path d="M6 57C4.40924 56.9982 2.88414 56.3576 1.75931 55.2187C0.634472 54.0798 0.00176457 52.5356 0 50.925V9.75C0.00211714 7.96045 0.705176 6.2448 1.95496 4.9794C3.20474 3.71399 4.89921 3.00214 6.66667 3H18.6667C20.4341 3.00214 22.1286 3.71399 23.3784 4.9794C24.6282 6.2448 25.3312 7.96045 25.3333 9.75H45.3333C47.1008 9.75214 48.7953 10.464 50.045 11.7294C51.2948 12.9948 51.9979 14.7104 52 16.5V19.2C52 19.558 51.8595 19.9014 51.6095 20.1546C51.3594 20.4078 51.0203 20.55 50.6667 20.55C50.313 20.55 49.9739 20.4078 49.7239 20.1546C49.4738 19.9014 49.3333 19.558 49.3333 19.2V16.5C49.3323 15.4262 48.9105 14.3967 48.1606 13.6374C47.4107 12.8781 46.3939 12.4511 45.3333 12.45H24C23.6464 12.45 23.3072 12.3078 23.0572 12.0546C22.8071 11.8014 22.6667 11.458 22.6667 11.1V9.75C22.6656 8.6762 22.2438 7.64669 21.4939 6.8874C20.744 6.12811 19.7272 5.70107 18.6667 5.7H6.66667C5.60613 5.70107 4.58932 6.12811 3.83941 6.8874C3.08949 7.64669 2.66773 8.6762 2.66667 9.75V50.925C2.66773 51.8198 3.01925 52.6776 3.64415 53.3103C4.26904 53.943 5.11627 54.2989 6 54.3C6.35362 54.3 6.69276 54.4422 6.94281 54.6954C7.19286 54.9486 7.33333 55.292 7.33333 55.65C7.33333 56.008 7.19286 56.3514 6.94281 56.6046C6.69276 56.8578 6.35362 57 6 57Z" fill="#263238"/>
</g>
<defs>
<clipPath id="clip0_1213_62">
<rect width="60" height="60" fill="white"/>
</clipPath>
</defs>
</svg>
