<svg width="24" height="24" viewBox="0 0 24 24" xmlns="http://www.w3.org/2000/svg" fill="#192435" class="puco-icon puco-icon-xs puco-language-trigger__icon __web-inspector-hide-shortcut__"><path d="M3.533 11.25a8.507 8.507 0 015.68-7.282 8.902 8.902 0 00-.6 1.206c-.664 1.613-1.085 3.741-1.16 6.076h-3.92zM12 2C6.477 2 2 6.477 2 12s4.477 10 10 10 10-4.477 10-10S17.523 2 12 2zm0 1.5c.261 0 .58.126.945.5.367.377.732.962 1.055 1.745.578 1.404.972 3.33 1.046 5.505H8.954C9.028 9.075 9.422 7.15 10 5.745c.323-.783.688-1.368 1.055-1.745.365-.374.684-.5.945-.5zm4.547 7.75c-.075-2.335-.496-4.463-1.16-6.076a8.898 8.898 0 00-.6-1.206 8.507 8.507 0 015.68 7.282h-3.92zm-1.5 1.5c-.075 2.175-.47 4.102-1.047 5.505-.323.784-.688 1.368-1.055 1.745-.364.375-.684.5-.945.5-.261 0-.58-.125-.945-.5-.367-.377-.732-.961-1.055-1.745-.578-1.403-.972-3.33-1.046-5.505h6.092zm-.26 7.283c.221-.367.421-.772.6-1.207.664-1.613 1.085-3.74 1.16-6.076h3.92a8.507 8.507 0 01-5.68 7.283zm-5.574 0a8.507 8.507 0 01-5.68-7.283h3.92c.075 2.335.496 4.463 1.16 6.076.18.435.38.84.6 1.207z"></path></svg>