<svg width="60" height="60" viewBox="0 0 60 60" fill="none" xmlns="http://www.w3.org/2000/svg">
<path d="M53.7238 8H6.27631C4.61231 8.00192 3.01701 8.67127 1.84038 9.86122C0.663754 11.0512 0.00189372 12.6645 0 14.3474V45.6526C0.00189372 47.3355 0.663754 48.9488 1.84038 50.1388C3.01701 51.3287 4.61231 51.9981 6.27631 52H53.7237C55.3877 51.9981 56.983 51.3287 58.1596 50.1388C59.3362 48.9488 59.9981 47.3355 60 45.6526V14.3474C59.9982 12.6645 59.3363 11.0511 58.1597 9.86119C56.9831 8.67123 55.3878 8.00188 53.7238 8ZM42.5645 29.9914L57.4896 18.1449V44.6436L42.5645 29.9914ZM6.27631 10.5389H53.7237C54.7221 10.5401 55.6793 10.9417 56.3853 11.6557C57.0912 12.3696 57.4883 13.3377 57.4895 14.3474V14.9174L33.337 34.0887C32.4539 34.7859 31.3656 35.1642 30.2453 35.1633C29.125 35.1623 28.0373 34.7823 27.1553 34.0836L2.51052 14.9125V14.3474C2.51165 13.3377 2.90877 12.3696 3.61474 11.6557C4.32072 10.9417 5.27791 10.5401 6.27631 10.5389ZM17.8797 30.0711L2.51052 44.6948V18.1157L17.8797 30.0711ZM53.7238 49.461H6.27631C5.63341 49.4607 5.00131 49.2939 4.44018 48.9766C3.87905 48.6592 3.40757 48.202 3.07062 47.6482L19.8954 31.6402L25.6171 36.0909C26.9404 37.1363 28.5714 37.7039 30.2505 37.7034C31.9295 37.703 33.5602 37.1345 34.883 36.0885L40.5717 31.5741L56.9359 47.6381C56.5996 48.1946 56.1276 48.6545 55.5652 48.9737C55.0028 49.2928 54.3687 49.4607 53.7238 49.461Z" fill="#263238"/>
<path d="M9 14L26.5 27" stroke="#FB5D1E" stroke-width="3" stroke-linecap="round"/>
<path d="M51.5 14L34 27" stroke="#FB5D1E" stroke-width="3" stroke-linecap="round"/>
</svg>
